<?xml version="1.0" encoding="UTF-8"?>
<svg id="Capa_2" data-name="Capa 2" xmlns="http://www.w3.org/2000/svg" viewBox="0 0 1181.48 904.02">
  <defs>
    <style>
      .cls-1 {
        fill: #022863;
      }

      .cls-2 {
        fill: #00215b;
      }

      .cls-3 {
        fill: #126fbd;
      }

      .cls-4 {
        fill: #001d61;
      }

      .cls-5 {
        fill: #0e2253;
      }
    </style>
  </defs>
  <g id="Capa_4" data-name="Capa 4">
    <polygon class="cls-5" points="422.82 92.29 427.24 78.53 431.76 92.26 446.21 92.2 434.55 100.74 439.07 114.47 427.34 106.02 415.68 114.56 420.09 100.8 408.37 92.35 422.82 92.29"/>
    <polygon class="cls-5" points="758.81 94.4 763.23 80.64 767.75 94.37 782.2 94.31 770.54 102.86 775.06 116.59 763.33 108.13 751.67 116.68 756.08 102.91 744.36 94.46 758.81 94.4"/>
    <polygon class="cls-5" points="495.54 47.31 500.8 30.9 506.19 47.27 523.42 47.21 509.52 57.39 514.91 73.76 500.93 63.68 487.02 73.86 492.28 57.45 478.3 47.38 495.54 47.31"/>
    <polygon class="cls-5" points="683.61 48.37 688.87 31.96 694.26 48.33 711.49 48.26 697.59 58.44 702.98 74.82 688.99 64.74 675.09 74.92 680.35 58.51 666.37 48.43 683.61 48.37"/>
    <polygon class="cls-5" points="588.02 23.43 595.53 0 603.22 23.37 627.83 23.28 607.98 37.82 615.67 61.19 595.71 46.8 575.86 61.34 583.37 37.91 563.41 23.52 588.02 23.43"/>
    <g>
      <path class="cls-5" d="M652.92,214.32l.1,9.41c3.52,1.9,5.99,5.42,5.99,9.6,0,6.28-5.33,11.32-11.79,11.32s-11.79-5.04-11.79-11.32c0-4.18,2.47-7.7,5.99-9.6v-14.45c-5.13-2-11.03-3.8-17.69-5.13,5.23-.1,11.03-.29,17.69-.57v-26.72c-14.64-6.37-30.14-13.98-44.69-22.73,0,0-52.49,34.52-108.5,43.65,0,0,21.4,7.32,80.07,7.23-12.74,3.04-26.44,8.18-40.89,16.36l.29,47.93s62.66-53.44,137.03.76l-.38-48.88s-3.99-3.04-11.41-6.85Z"/>
      <path class="cls-5" d="M705.89,199.96s-23.49-6.37-53.06-18.45l.1,21.59c14.83-.67,32.43-1.71,52.97-3.14Z"/>
    </g>
    <circle class="cls-5" cx="596.69" cy="333.4" r="69.73"/>
    <g>
      <path class="cls-2" d="M556.19,495.27l-33,54.01,68.85,93.95v-76.17c-12.08-2.76-20.92-13.03-20.92-25.48s9.22-23.3,21.59-25.67c1.71-.38,3.52-.57,5.33-.57v-88.63l-41.84,68.56Z"/>
      <path class="cls-2" d="M597.95,426.79l.07-.09h-.01s0-.01,0-.01h0s-14.38-2.22-14.38-2.22c-47.59-7.39-93.94-21.27-137.75-41.25h0s-81.71-70.09-85.76-94.92l-.39-.04c-3.62-8.17-11.13-13.38-18.98-12.21-9.81,1.46-16.33,12.24-14.57,24.07.13.85.37,1.64.58,2.45.9,23.05,13.23,68.51,80.03,131.88l106.19,99.85,28-24.43-17.79,39.4,74.78-122.49Z"/>
    </g>
    <path class="cls-4" d="M602.52,643.08l.29,39.75,232.63-17.5-3.71-44.03v-.1h-.1c-31.86-3.52-31.35-3.79-73.77-7.84l-22.33-.57c-37.95.48-52.99.9-88.94,13.17l-43.78,16.93-.29.19Z"/>
    <g>
      <path class="cls-2" d="M638.37,494.93l33,54.01-68.85,93.95v-76.17c12.08-2.76,20.92-13.03,20.92-25.48,0-12.65-9.22-23.3-21.59-25.67-1.71-.38-3.52-.57-5.33-.57v-88.63s41.84,68.56,41.84,68.56Z"/>
      <path class="cls-2" d="M596.61,426.45l-.07-.09h.01s0-.01,0-.01h0s14.38-2.22,14.38-2.22c47.59-7.39,93.94-21.27,137.75-41.25h0s81.71-70.09,85.76-94.92l.39-.04c3.62-8.17,11.13-13.38,18.98-12.21,9.81,1.46,16.33,12.24,14.57,24.07-.13.85-.37,1.64-.58,2.45-.9,23.05-13.23,68.51-80.03,131.88l-106.19,99.85-28-24.43,17.79,39.4-74.78-122.49Z"/>
    </g>
    <path class="cls-2" d="M699.12,546.38s41.21-39.97,79.77-4.05c0,0-25.36-8.63-79.77,4.05Z"/>
    <path class="cls-2" d="M680.02,589.09s53.53-44.9,113.23-.7c0,0-97.73-9.86-113.23.7Z"/>
    <path class="cls-4" d="M592.04,643.22l-.29,39.75-232.63-17.5,3.71-44.03v-.1h.1c31.86-3.52,31.35-3.79,73.77-7.84l22.33-.57c37.95.48,52.99.9,88.94,13.17l43.78,16.93.29.19Z"/>
    <path class="cls-2" d="M495.44,546.53s-41.21-39.97-79.77-4.05c0,0,25.36-8.63,79.77,4.05Z"/>
    <path class="cls-2" d="M514.55,589.23s-53.53-44.9-113.23-.7c0,0,97.73-9.86,113.23.7Z"/>
    <g>
      <path class="cls-3" d="M374.46,298.18c21.13-87.7,81-142.64,81-142.64l43.67,28.35,85.41-80.83.35,45.78,10.58.06.17-74.02c-219.41,10.92-221.17,223.29-221.17,223.29ZM499.14,169.98l-36.28-20.78s26.77-26.41,69.73-37.68l-33.46,58.46Z"/>
      <path class="cls-3" d="M595.64,74.89l-.17,74.02,10.91-.06.35-45.78,85.41,80.83,43.67-28.35s59.87,54.94,81,142.64c0,0-1.76-212.37-221.17-223.29ZM692.14,169.98l-33.46-58.46c42.97,11.27,69.73,37.68,69.73,37.68l-36.28,20.78Z"/>
    </g>
    <path class="cls-3" d="M470.96,366.5s-13.73-86.88,8.61-155.44l20.62,7.87s-29.42,82.75-29.23,147.57Z"/>
    <path class="cls-3" d="M721.42,368.85s13.73-86.88-8.61-155.44l-20.62,7.87s29.42,82.75,29.23,147.57Z"/>
    <g>
      <path class="cls-1" d="M11.12,831.34v-112.31h85.79v24.71h-55.26v62.89h57.3v24.71H11.12ZM39.45,786.1v-23.58h50.88v23.58h-50.88Z"/>
      <path class="cls-1" d="M116.32,831.34v-112.31h51.82c12,0,22.59,2.3,31.78,6.9,9.18,4.6,16.36,11.07,21.53,19.41s7.75,18.29,7.75,29.84-2.58,21.37-7.75,29.76c-5.17,8.4-12.34,14.9-21.53,19.49-9.19,4.6-19.78,6.9-31.78,6.9h-51.82ZM147.31,805.99h19.26c6.36,0,11.87-1.23,16.52-3.69,4.64-2.46,8.27-6.02,10.88-10.67,2.61-4.65,3.91-10.13,3.91-16.45s-1.31-12.06-3.91-16.61c-2.61-4.54-6.24-8.05-10.88-10.51-4.65-2.46-10.15-3.69-16.52-3.69h-19.26v61.61Z"/>
      <path class="cls-1" d="M296.03,833.59c-16.18,0-28.78-4.54-37.81-13.64-9.03-9.09-13.54-21.92-13.54-38.51v-62.41h31v61.45c0,9.52,1.82,16.36,5.48,20.54,3.65,4.17,8.71,6.26,15.18,6.26s11.51-2.09,15.11-6.26c3.6-4.17,5.4-11.02,5.4-20.54v-61.45h30.68v62.41c0,16.58-4.57,29.42-13.7,38.51-9.13,9.09-21.74,13.64-37.81,13.64Z"/>
      <path class="cls-1" d="M423.15,833.59c-8.66,0-16.65-1.42-23.95-4.25-7.31-2.83-13.67-6.84-19.1-12.03-5.43-5.19-9.65-11.36-12.68-18.53-3.03-7.17-4.54-15.03-4.54-23.58s1.51-16.42,4.54-23.58c3.03-7.17,7.25-13.34,12.68-18.53,5.43-5.19,11.79-9.2,19.1-12.03,7.3-2.83,15.29-4.25,23.95-4.25,10.12,0,19.18,1.79,27.16,5.38,7.98,3.58,14.64,8.85,19.96,15.8l-19.72,18.29c-3.55-4.28-7.46-7.54-11.74-9.79-4.28-2.25-8.98-3.37-14.09-3.37-4.49,0-8.61.75-12.37,2.25-3.76,1.5-6.97,3.67-9.63,6.5-2.66,2.83-4.75,6.23-6.26,10.19-1.51,3.96-2.27,8.34-2.27,13.16s.76,9.2,2.27,13.16c1.51,3.96,3.6,7.36,6.26,10.19,2.66,2.84,5.87,5,9.63,6.5,3.76,1.5,7.88,2.25,12.37,2.25,5.11,0,9.81-1.12,14.09-3.37,4.28-2.25,8.19-5.56,11.74-9.95l19.72,18.29c-5.32,6.95-11.98,12.25-19.96,15.88s-17.04,5.46-27.16,5.46Z"/>
      <path class="cls-1" d="M533.68,833.59c-8.66,0-16.73-1.44-24.19-4.33-7.46-2.89-13.91-6.98-19.33-12.27-5.43-5.29-9.68-11.5-12.76-18.61-3.08-7.11-4.62-14.89-4.62-23.34s1.54-16.04,4.62-23.1c3.08-7.06,7.33-13.24,12.76-18.53,5.42-5.29,11.84-9.39,19.25-12.27,7.41-2.89,15.5-4.33,24.27-4.33s16.85,1.44,24.27,4.33c7.41,2.89,13.83,6.95,19.26,12.19,5.42,5.24,9.68,11.39,12.76,18.45,3.08,7.06,4.62,14.82,4.62,23.26s-1.51,16.39-4.54,23.5c-3.03,7.12-7.28,13.29-12.76,18.53-5.48,5.24-11.92,9.31-19.33,12.19-7.41,2.89-15.5,4.33-24.27,4.33ZM533.68,807.28c4.17,0,8.06-.75,11.66-2.25,3.6-1.5,6.73-3.66,9.39-6.5,2.66-2.83,4.75-6.2,6.26-10.11,1.51-3.9,2.27-8.32,2.27-13.24s-.76-9.33-2.27-13.24c-1.51-3.9-3.6-7.27-6.26-10.11-2.66-2.83-5.79-5-9.39-6.5-3.6-1.5-7.49-2.25-11.66-2.25s-8.06.75-11.66,2.25c-3.6,1.5-6.76,3.67-9.47,6.5-2.72,2.83-4.8,6.2-6.26,10.11-1.46,3.91-2.19,8.32-2.19,13.24s.73,9.33,2.19,13.24c1.46,3.91,3.55,7.28,6.26,10.11,2.71,2.84,5.87,5,9.47,6.5,3.6,1.5,7.49,2.25,11.66,2.25Z"/>
      <path class="cls-1" d="M611.01,831.34v-112.31h25.52l60.27,74.77h-12.05v-74.77h30.37v112.31h-25.52l-60.43-74.77h12.05v74.77h-30.21Z"/>
      <path class="cls-1" d="M737.19,831.34v-112.31h25.52l60.27,74.77h-12.05v-74.77h30.37v112.31h-25.52l-60.43-74.77h12.05v74.77h-30.21Z"/>
      <path class="cls-1" d="M863.37,831.34v-112.31h85.79v24.71h-55.26v62.89h57.3v24.71h-87.82ZM891.71,786.1v-23.58h50.88v23.58h-50.88Z"/>
      <path class="cls-1" d="M1023.05,833.59c-8.66,0-16.65-1.42-23.95-4.25-7.31-2.83-13.67-6.84-19.1-12.03-5.43-5.19-9.65-11.36-12.68-18.53-3.03-7.17-4.54-15.03-4.54-23.58s1.51-16.42,4.54-23.58c3.03-7.17,7.25-13.34,12.68-18.53,5.43-5.19,11.79-9.2,19.1-12.03,7.3-2.83,15.29-4.25,23.95-4.25,10.12,0,19.18,1.79,27.16,5.38,7.98,3.58,14.64,8.85,19.96,15.8l-19.72,18.29c-3.55-4.28-7.46-7.54-11.74-9.79-4.28-2.25-8.98-3.37-14.09-3.37-4.49,0-8.61.75-12.37,2.25-3.76,1.5-6.97,3.67-9.63,6.5-2.66,2.83-4.75,6.23-6.26,10.19-1.51,3.96-2.27,8.34-2.27,13.16s.76,9.2,2.27,13.16c1.51,3.96,3.6,7.36,6.26,10.19,2.66,2.84,5.87,5,9.63,6.5,3.76,1.5,7.88,2.25,12.37,2.25,5.11,0,9.81-1.12,14.09-3.37,4.28-2.25,8.19-5.56,11.74-9.95l19.72,18.29c-5.32,6.95-11.98,12.25-19.96,15.88s-17.04,5.46-27.16,5.46Z"/>
      <path class="cls-1" d="M1116.36,831.34v-87.12h-33.66v-25.19h98.16v25.19h-33.5v87.12h-31Z"/>
    </g>
  </g>
</svg>